<svg xmlns="http://www.w3.org/2000/svg" viewBox="0 0 480 128" width="480" height="128">
  <defs>
    <linearGradient id="stLogoBg" x1="0%" y1="0%" x2="100%" y2="100%">
      <stop offset="0%" stop-color="#1E1E2E" />
      <stop offset="100%" stop-color="#11111B" />
    </linearGradient>
    <linearGradient id="stLogoBorder" x1="0%" y1="0%" x2="100%" y2="100%">
      <stop offset="0%" stop-color="#38BDF8" stop-opacity="0.6" />
      <stop offset="100%" stop-color="#C084FC" stop-opacity="0.2" />
    </linearGradient>
    <linearGradient id="stLGrad1" x1="0%" y1="0%" x2="100%" y2="100%">
      <stop offset="0%" stop-color="#38BDF8" />
      <stop offset="100%" stop-color="#2563EB" />
    </linearGradient>
    <linearGradient id="stLGrad2" x1="0%" y1="0%" x2="100%" y2="100%">
      <stop offset="0%" stop-color="#A855F7" />
      <stop offset="100%" stop-color="#EC4899" />
    </linearGradient>
    <linearGradient id="stLGrad3" x1="0%" y1="100%" x2="100%" y2="0%">
      <stop offset="0%" stop-color="#2DD4BF" />
      <stop offset="100%" stop-color="#38BDF8" />
    </linearGradient>
  </defs>

  <!-- App Icon Squircle -->
  <g transform="translate(10, 10)">
    <rect x="0" y="0" width="108" height="108" rx="26" fill="url(#stLogoBg)" stroke="url(#stLogoBorder)" stroke-width="2" />
    <g transform="translate(8, 10) scale(0.72)">
      <path d="M 24 104 L 24 32 L 48 24 L 48 96 Z" fill="url(#stLGrad1)" />
      <path d="M 48 24 L 64 62 L 64 86 L 48 48 Z" fill="#1D4ED8" opacity="0.9" />
      <path d="M 64 62 L 80 24 L 80 48 L 64 86 Z" fill="url(#stLGrad2)" />
      <path d="M 80 24 L 104 32 L 104 104 L 80 96 Z" fill="url(#stLGrad2)" />
      <polygon points="64,30 76,52 64,74 52,52" fill="url(#stLGrad3)" />
    </g>
  </g>

  <!-- Title -->
  <text x="142" y="70" font-family="-apple-system, BlinkMacSystemFont, 'Inter', 'Segoe UI', 'Ubuntu', sans-serif" font-size="44" font-weight="900" letter-spacing="2" fill="#F8FAFC">MRT <tspan fill="#38BDF8">Studio</tspan></text>
  <!-- Slogan -->
  <text x="144" y="98" font-family="-apple-system, BlinkMacSystemFont, 'Inter', 'Segoe UI', 'Ubuntu', sans-serif" font-size="14" font-weight="500" letter-spacing="1.2" fill="#94A3B8">NATIVE DEVELOPMENT FOR MRT</text>
</svg>
